<?xml version="1.0" standalone="no"?><!DOCTYPE svg PUBLIC "-//W3C//DTD SVG 1.1//EN" "http://www.w3.org/Graphics/SVG/1.1/DTD/svg11.dtd"><svg t="1536575127555" class="icon" style="" viewBox="0 0 1024 1024" version="1.1" xmlns="http://www.w3.org/2000/svg" p-id="1914" xmlns:xlink="http://www.w3.org/1999/xlink" width="24" height="24"><defs><style type="text/css"></style></defs><path d="M92.848153 957.245643c-6.560416 0-13.118785-2.50403-18.120706-7.513114-9.996678-10.007935-9.986445-26.224268 0.021489-36.220946l419.563728-419.049005c9.999748-9.987468 26.198685-9.986445 36.199457 0l419.547355 419.050028c10.007935 9.996678 10.017144 26.211988 0.021489 36.220946-9.995655 10.007935-26.210965 10.017144-36.220946 0.021489L512.411881 548.782741l-401.464511 400.972301C105.947496 954.748776 99.397313 957.245643 92.848153 957.245643z" p-id="1915" fill="#ffffff"></path><path d="M512.411881 537.215288c-6.550183 0-13.100366-2.496867-18.10024-7.490601L74.748936 110.642936c-10.007935-9.996678-10.017144-26.213012-0.021489-36.220946s26.213012-10.018168 36.220946-0.021489l401.463488 401.001977L913.856949 74.402547c10.007935-9.997702 26.223245-9.988492 36.220946 0.020466 9.996678 10.007935 9.987468 26.224268-0.021489 36.220946L530.513144 529.723663C525.512247 534.717398 518.963087 537.215288 512.411881 537.215288z" p-id="1916" fill="#ffffff"></path></svg>