<?xml version="1.0" standalone="no"?><!DOCTYPE svg PUBLIC "-//W3C//DTD SVG 1.1//EN" "http://www.w3.org/Graphics/SVG/1.1/DTD/svg11.dtd"><svg t="1539573036486" class="icon" style="" viewBox="0 0 1024 1024" version="1.1" xmlns="http://www.w3.org/2000/svg" p-id="4384" xmlns:xlink="http://www.w3.org/1999/xlink" width="32" height="32"><defs><style type="text/css"></style></defs><path d="M255.386 643.482c39.116 0 71.065-31.94999999 71.065-71.066L326.451 655.36c0 39.117 31.949 71.066 71.066 71.066 39.117 0 71.065-31.94999999 71.065-71.06599999l0 50.58599999c0 39.116 31.94999999 71.065 71.06600001 71.065 39.117 0 71.066-31.949 71.06599999-71.065L610.714 916.07c0 39.117 31.948 71.066 71.065 71.066s71.066-31.949 71.066-71.066l0-508.10800001 83.968 83.96800001c28.672 28.672 75.571 28.672 104.243 0 28.672-28.672 28.672-75.572 0-104.24400001l-232.44799999-232.44799999c-54.067-66.764-137.011-109.568-229.78600002-109.568-158.105 0-287.334 123.904-294.70699999 279.55199999l-0.41 0L183.705 572.621c0.615 38.707 32.564 70.86 71.68 70.86z" fill="#ffffff" p-id="4385"></path></svg>