<?xml version="1.0" standalone="no"?><!DOCTYPE svg PUBLIC "-//W3C//DTD SVG 1.1//EN" "http://www.w3.org/Graphics/SVG/1.1/DTD/svg11.dtd"><svg t="1539604116791" class="icon" style="" viewBox="0 0 1024 1024" version="1.1" xmlns="http://www.w3.org/2000/svg" p-id="4601" xmlns:xlink="http://www.w3.org/1999/xlink" width="200" height="200"><defs><style type="text/css"></style></defs><path d="M768.614 380.518c-39.116 0-71.065 31.95-71.065 71.066V368.64c0-39.117-31.949-71.066-71.066-71.066-39.117 0-71.065 31.95-71.065 71.066v-50.586c0-39.116-31.95-71.065-71.066-71.065-39.117 0-71.066 31.949-71.066 71.065V107.93c0-39.117-31.948-71.066-71.065-71.066s-71.066 31.949-71.066 71.066v508.108l-83.968-83.968c-28.672-28.672-75.571-28.672-104.243 0-28.672 28.672-28.672 75.572 0 104.244l232.448 232.448c54.067 66.764 137.011 109.568 229.786 109.568 158.105 0 287.334-123.904 294.707-279.552h0.41V451.379c-0.615-38.707-32.564-70.86-71.68-70.86z" fill="#ffffff" p-id="4602"></path></svg>