<?xml version="1.0" standalone="no"?><!DOCTYPE svg PUBLIC "-//W3C//DTD SVG 1.1//EN" "http://www.w3.org/Graphics/SVG/1.1/DTD/svg11.dtd"><svg t="1540881818910" class="icon" style="" viewBox="0 0 1024 1024" version="1.1" xmlns="http://www.w3.org/2000/svg" p-id="6568" xmlns:xlink="http://www.w3.org/1999/xlink" width="16" height="16"><defs><style type="text/css"></style></defs><path d="M105.650794 943.633157c-6.320988 0-12.641975-2.708995-18.059965-7.223986-9.932981-9.932981-9.932981-26.186949 0-36.119929L492.134039 496.64903c9.932981-9.932981 26.186949-9.932981 36.119929 0l403.640212 403.640212c9.932981 9.932981 9.932981 26.186949 0 36.119929-9.932981 9.932981-26.186949 9.932981-36.119929 0L510.194004 550.828924l-387.386243 386.483245C118.292769 941.82716 111.971781 943.633157 105.650794 943.633157z" p-id="6569" fill="#ffffff"></path><path d="M123.710758 87.590829l387.386243 386.483245L896.677249 87.590829c9.932981-9.932981 26.186949-9.932981 36.119929 0 9.932981 9.932981 9.932981 26.186949 0 36.119929L528.253968 527.35097c-9.932981 9.932981-26.186949 9.932981-36.119929 0L87.590829 122.80776c-9.932981-9.932981-9.932981-26.186949 0-36.119929 4.514991-4.514991 11.738977-7.223986 18.059965-7.223986C111.971781 79.463845 118.292769 82.17284 123.710758 87.590829z" p-id="6570" fill="#ffffff"></path><path d="M921.058201 947.24515c-7.223986 0-13.544974-2.708995-18.962963-8.126984L84.881834 121.904762c-10.835979-10.835979-10.835979-27.992945 0-37.925926 10.835979-10.835979 27.992945-10.835979 37.925926 0l817.213404 817.213404c10.835979 10.835979 10.835979 27.992945 0 37.925926C934.603175 944.536155 928.282187 947.24515 921.058201 947.24515z" p-id="6571" fill="#ffffff"></path><path d="M103.844797 947.24515c-7.223986 0-13.544974-2.708995-18.962963-8.126984-10.835979-10.835979-10.835979-27.992945 0-37.925926L902.095238 83.978836c10.835979-10.835979 27.992945-10.835979 37.925926 0 10.835979 10.835979 10.835979 27.992945 0 37.925926L122.80776 939.118166C117.389771 944.536155 111.068783 947.24515 103.844797 947.24515z" p-id="6572" fill="#ffffff"></path></svg>